# xmcd
#
# Track frame offsets:
#	150
#	38506
#	113877
#	162818
#	208496
#	265956
#
# Disc length: 4201 seconds
#
# Revision: 0
# Processed by: cddbd v1.5.2PL0 Copyright (c) Steve Scherf et al.
# Submitted via: EasyCDDAExtractor 16.0.8.2
#
DISCID=4f106706
DTITLE=Φιρφιρής Διονύσιος π. - Μνημεία εκκλησ. μουσικής 6-1
DYEAR=1999
DGENRE=Βυζ. Εκκλησιαστική
TTITLE0=Σήμερον προέρχεται [Ιακώβου Πρωτοψάλτου, ήχος πλ.β'] 
TTITLE1=Τον υιόν της βροντής [Ιακώβου Πρωτοψάλτου, ήχος β'] 
TTITLE2=Αναπεσών εν τω στήθει [Ιακώβου Πρωτοψάλτου, ήχος β'] 
TTITLE3=Όπου επισκιάσει [Ιακώβου Πρωτοψάλτου, ήχος πλ.α'] 
TTITLE4=Ότε καιρός της επί γης [Ιακώβου Πρωτοψάλτου, ήχος πλ.β'] 
TTITLE5=Προς την φωνήν του βοώντος [Ιακώβου Πρωτοψάλτου, ήχος πλ.δ'] 
EXTD=
EXTT0=
EXTT1=
EXTT2=
EXTT3=
EXTT4=
EXTT5=
PLAYORDER=
